<svg xmlns="http://www.w3.org/2000/svg" xmlns:xlink="http://www.w3.org/1999/xlink" width="500" zoomAndPan="magnify" viewBox="0 0 375 374.999991" height="500" preserveAspectRatio="xMidYMid meet" version="1.0"><defs><g/><clipPath id="c56b449a56"><path d="M 65.832031 122.910156 L 122.082031 122.910156 L 122.082031 244.601562 L 65.832031 244.601562 Z M 65.832031 122.910156 " clip-rule="nonzero"/></clipPath></defs><rect x="-37.5" width="450" fill="#ffffff" y="-37.499999" height="449.999989" fill-opacity="1"/><rect x="-37.5" width="450" fill="#f4f4f4" y="-37.499999" height="449.999989" fill-opacity="1"/><g fill="#8ca9ad" fill-opacity="1"><g transform="translate(130.739015, 215.632339)"><g><path d="M 19.0625 0.625 C 12.914062 0.625 8.476562 -0.894531 5.75 -3.9375 C 3.019531 -6.976562 1.65625 -11.882812 1.65625 -18.65625 L 1.65625 -25.28125 L 14.96875 -25.28125 L 14.96875 -16.859375 C 14.96875 -13.492188 16.039062 -11.8125 18.1875 -11.8125 C 19.394531 -11.8125 20.234375 -12.164062 20.703125 -12.875 C 21.179688 -13.582031 21.421875 -14.773438 21.421875 -16.453125 C 21.421875 -18.660156 21.15625 -20.484375 20.625 -21.921875 C 20.101562 -23.367188 19.4375 -24.578125 18.625 -25.546875 C 17.8125 -26.523438 16.351562 -28.035156 14.25 -30.078125 L 8.421875 -35.90625 C 3.910156 -40.320312 1.65625 -45.207031 1.65625 -50.5625 C 1.65625 -56.332031 2.976562 -60.726562 5.625 -63.75 C 8.28125 -66.769531 12.15625 -68.28125 17.25 -68.28125 C 23.332031 -68.28125 27.710938 -66.664062 30.390625 -63.4375 C 33.066406 -60.207031 34.40625 -55.15625 34.40625 -48.28125 L 20.625 -48.28125 L 20.546875 -52.921875 C 20.546875 -53.816406 20.296875 -54.523438 19.796875 -55.046875 C 19.304688 -55.566406 18.613281 -55.828125 17.71875 -55.828125 C 16.664062 -55.828125 15.875 -55.535156 15.34375 -54.953125 C 14.820312 -54.378906 14.5625 -53.597656 14.5625 -52.609375 C 14.5625 -50.398438 15.820312 -48.113281 18.34375 -45.75 L 26.21875 -38.1875 C 28.0625 -36.40625 29.585938 -34.710938 30.796875 -33.109375 C 32.003906 -31.515625 32.972656 -29.625 33.703125 -27.4375 C 34.441406 -25.257812 34.8125 -22.675781 34.8125 -19.6875 C 34.8125 -13.019531 33.585938 -7.96875 31.140625 -4.53125 C 28.703125 -1.09375 24.675781 0.625 19.0625 0.625 Z M 19.0625 0.625 "/></g></g></g><g fill="#8ca9ad" fill-opacity="1"><g transform="translate(167.042773, 215.632339)"><g><path d="M 3 -67.640625 L 20.875 -67.640625 C 26.28125 -67.640625 30.132812 -65.894531 32.4375 -62.40625 C 34.75 -58.914062 35.90625 -53.8125 35.90625 -47.09375 C 35.90625 -40.375 34.878906 -35.304688 32.828125 -31.890625 C 30.785156 -28.484375 27.113281 -26.78125 21.8125 -26.78125 L 16.296875 -26.78125 L 16.296875 0 L 3 0 Z M 17.09375 -38.984375 C 18.71875 -38.984375 19.910156 -39.285156 20.671875 -39.890625 C 21.429688 -40.492188 21.925781 -41.359375 22.15625 -42.484375 C 22.394531 -43.609375 22.515625 -45.222656 22.515625 -47.328125 C 22.515625 -50.160156 22.195312 -52.207031 21.5625 -53.46875 C 20.9375 -54.726562 19.679688 -55.359375 17.796875 -55.359375 L 16.296875 -55.359375 L 16.296875 -38.984375 Z M 17.09375 -38.984375 "/></g></g></g><g fill="#8ca9ad" fill-opacity="1"><g transform="translate(204.212781, 215.632339)"><g><path d="M 1.1875 0 L 7.71875 -67.640625 L 30.640625 -67.640625 L 37.09375 0 L 24.25 0 L 23.3125 -10.953125 L 15.125 -10.953125 L 14.328125 0 Z M 16.140625 -21.734375 L 22.28125 -21.734375 L 19.296875 -56.15625 L 18.65625 -56.15625 Z M 16.140625 -21.734375 "/></g></g></g><g fill="#8ca9ad" fill-opacity="1"><g transform="translate(242.40653, 215.632339)"><g><path d="M 18.75 0.625 C 13.8125 0.625 9.859375 -0.921875 6.890625 -4.015625 C 3.921875 -7.109375 2.4375 -11.363281 2.4375 -16.78125 L 2.4375 -47.953125 C 2.4375 -54.671875 3.773438 -59.738281 6.453125 -63.15625 C 9.128906 -66.570312 13.332031 -68.28125 19.0625 -68.28125 C 24.039062 -68.28125 28.050781 -66.914062 31.09375 -64.1875 C 34.144531 -61.457031 35.671875 -57.519531 35.671875 -52.375 L 35.671875 -40.71875 L 22.203125 -40.71875 L 22.203125 -50.71875 C 22.203125 -52.65625 21.96875 -53.988281 21.5 -54.71875 C 21.03125 -55.457031 20.21875 -55.828125 19.0625 -55.828125 C 17.851562 -55.828125 17.023438 -55.40625 16.578125 -54.5625 C 16.128906 -53.726562 15.90625 -52.5 15.90625 -50.875 L 15.90625 -16.9375 C 15.90625 -15.144531 16.164062 -13.84375 16.6875 -13.03125 C 17.21875 -12.21875 18.007812 -11.8125 19.0625 -11.8125 C 21.15625 -11.8125 22.203125 -13.519531 22.203125 -16.9375 L 22.203125 -29.140625 L 35.828125 -29.140625 L 35.828125 -16.375 C 35.828125 -5.039062 30.132812 0.625 18.75 0.625 Z M 18.75 0.625 "/></g></g></g><g fill="#8ca9ad" fill-opacity="1"><g transform="translate(279.734031, 215.632339)"><g><path d="M 3 0 L 3 -67.640625 L 30.078125 -67.640625 L 30.078125 -54.578125 L 16.78125 -54.578125 L 16.78125 -41.421875 L 29.53125 -41.421875 L 29.53125 -28.671875 L 16.78125 -28.671875 L 16.78125 -13.15625 L 30.953125 -13.15625 L 30.953125 0 Z M 3 0 "/></g></g></g><g clip-path="url(#c56b449a56)"><path fill="#8ca9ad" d="M 65.832031 122.910156 L 122.082031 122.910156 L 122.082031 244.640625 L 65.832031 244.640625 Z M 65.832031 122.910156 " fill-opacity="1" fill-rule="nonzero"/></g><g fill="#365b6d" fill-opacity="1"><g transform="translate(110.833562, 229.52899)"><g><path d="M 0 -4.921875 L -30.46875 -4.921875 L -30.46875 -0.4375 L -37.71875 -0.4375 L -37.71875 -16.953125 L -30.46875 -16.953125 L -30.46875 -12.46875 L 0 -12.46875 Z M 0 -4.921875 "/></g></g></g><g fill="#365b6d" fill-opacity="1"><g transform="translate(110.833562, 212.145198)"><g><path d="M 0 -1.671875 L -37.71875 -1.671875 L -37.71875 -9.171875 L -24.234375 -9.171875 L -24.234375 -12.734375 L -37.71875 -12.734375 L -37.71875 -20.234375 L 0 -20.234375 L 0 -12.734375 L -17.125 -12.734375 L -17.125 -9.171875 L 0 -9.171875 Z M 0 -1.671875 "/></g></g></g><g fill="#365b6d" fill-opacity="1"><g transform="translate(110.833562, 190.239868)"><g><path d="M 0 -1.3125 L -37.71875 -1.3125 L -37.71875 -8.609375 L 0 -8.609375 Z M 0 -1.3125 "/></g></g></g><g fill="#365b6d" fill-opacity="1"><g transform="translate(110.833562, 180.274915)"><g><path d="M -37.71875 -1.671875 L -37.71875 -13.265625 C -37.71875 -15.109375 -37.300781 -16.535156 -36.46875 -17.546875 C -35.632812 -18.554688 -34.460938 -19.234375 -32.953125 -19.578125 C -31.441406 -19.929688 -29.515625 -20.109375 -27.171875 -20.109375 C -25.035156 -20.109375 -23.367188 -19.828125 -22.171875 -19.265625 C -20.972656 -18.710938 -20.140625 -17.75 -19.671875 -16.375 C -19.429688 -17.519531 -18.859375 -18.347656 -17.953125 -18.859375 C -17.046875 -19.367188 -15.816406 -19.625 -14.265625 -19.625 L 0 -19.53125 L 0 -12.15625 L -14.75 -12.15625 C -15.800781 -12.15625 -16.472656 -11.953125 -16.765625 -11.546875 C -17.066406 -11.140625 -17.21875 -10.394531 -17.21875 -9.3125 L 0 -9.3125 L 0 -1.671875 Z M -23.75 -11.15625 C -23.75 -12.207031 -24.890625 -12.734375 -27.171875 -12.734375 C -28.171875 -12.734375 -28.914062 -12.6875 -29.40625 -12.59375 C -29.90625 -12.507812 -30.25 -12.347656 -30.4375 -12.109375 C -30.632812 -11.878906 -30.734375 -11.546875 -30.734375 -11.109375 L -30.734375 -9.359375 L -23.75 -9.359375 Z M -23.75 -11.15625 "/></g></g></g><g fill="#365b6d" fill-opacity="1"><g transform="translate(110.833562, 159.335352)"><g><path d="M -37.71875 -1.671875 L -37.71875 -12.078125 C -37.71875 -14.765625 -36.96875 -16.78125 -35.46875 -18.125 C -33.976562 -19.476562 -31.769531 -20.171875 -28.84375 -20.203125 L -11.203125 -20.28125 C -7.484375 -20.3125 -4.6875 -19.664062 -2.8125 -18.34375 C -0.9375 -17.03125 0 -14.851562 0 -11.8125 L 0 -1.671875 Z M -6.671875 -10.578125 C -6.671875 -11.953125 -7.34375 -12.640625 -8.6875 -12.640625 L -28.140625 -12.640625 C -28.992188 -12.640625 -29.628906 -12.570312 -30.046875 -12.4375 C -30.472656 -12.3125 -30.757812 -12.070312 -30.90625 -11.71875 C -31.050781 -11.375 -31.125 -10.832031 -31.125 -10.09375 L -31.125 -9.265625 L -6.671875 -9.265625 Z M -6.671875 -10.578125 "/></g></g></g></svg>